<?xml version="1.0" encoding="utf-8" standalone="no"?>
<!DOCTYPE svg PUBLIC "-//W3C//DTD SVG 1.1//EN"
  "http://www.w3.org/Graphics/SVG/1.1/DTD/svg11.dtd">
<svg xmlns:xlink="http://www.w3.org/1999/xlink" width="241.76875pt" height="792.366562pt" viewBox="0 0 241.76875 792.366562" xmlns="http://www.w3.org/2000/svg" version="1.1">
 <metadata>
  <rdf:RDF xmlns:dc="http://purl.org/dc/elements/1.1/" xmlns:cc="http://creativecommons.org/ns#" xmlns:rdf="http://www.w3.org/1999/02/22-rdf-syntax-ns#">
   <cc:Work>
    <dc:type rdf:resource="http://purl.org/dc/dcmitype/StillImage"/>
    <dc:date>2025-09-19T17:40:58.970807</dc:date>
    <dc:format>image/svg+xml</dc:format>
    <dc:creator>
     <cc:Agent>
      <dc:title>Matplotlib v3.10.6, https://matplotlib.org/</dc:title>
     </cc:Agent>
    </dc:creator>
   </cc:Work>
  </rdf:RDF>
 </metadata>
 <defs>
  <style type="text/css">*{stroke-linejoin: round; stroke-linecap: butt}</style>
 </defs>
 <g id="figure_1">
  <g id="patch_1">
   <path d="M 0 792.366562 
L 241.76875 792.366562 
L 241.76875 0 
L 0 0 
z
" style="fill: #2d2d2d"/>
  </g>
  <g id="axes_1">
   <g id="patch_2">
    <path d="M 50.75 764.746562 
L 194.627759 764.746562 
L 194.627759 115.206562 
L 50.75 115.206562 
z
" style="fill: #2d2d2d"/>
   </g>
   <g id="line2d_1">
    <path d="M 50.75 760.648518 
L 194.627759 760.648518 
" clip-path="url(#pfbcf85f2d5)" style="fill: none; stroke-dasharray: 3.33,1.44; stroke-dashoffset: 0; stroke: #9aa0a6; stroke-opacity: 0.3; stroke-width: 0.9"/>
   </g>
   <g id="line2d_2">
    <path d="M 50.75 699.177856 
L 194.627759 699.177856 
" clip-path="url(#pfbcf85f2d5)" style="fill: none; stroke-dasharray: 3.33,1.44; stroke-dashoffset: 0; stroke: #9aa0a6; stroke-opacity: 0.3; stroke-width: 0.9"/>
   </g>
   <g id="line2d_3">
    <path d="M 50.75 494.275648 
L 194.627759 494.275648 
" clip-path="url(#pfbcf85f2d5)" style="fill: none; stroke-dasharray: 3.33,1.44; stroke-dashoffset: 0; stroke: #9aa0a6; stroke-opacity: 0.3; stroke-width: 0.9"/>
   </g>
   <g id="line2d_4">
    <path d="M 50.75 289.373439 
L 194.627759 289.373439 
" clip-path="url(#pfbcf85f2d5)" style="fill: none; stroke-dasharray: 3.33,1.44; stroke-dashoffset: 0; stroke: #9aa0a6; stroke-opacity: 0.3; stroke-width: 0.9"/>
   </g>
   <g id="line2d_5">
    <path d="M 50.75 125.451673 
L 194.627759 125.451673 
" clip-path="url(#pfbcf85f2d5)" style="fill: none; stroke-dasharray: 3.33,1.44; stroke-dashoffset: 0; stroke: #9aa0a6; stroke-opacity: 0.3; stroke-width: 0.9"/>
   </g>
   <g id="matplotlib.axis_1">
    <g id="xtick_1">
     <g id="text_1">
      <!-- Top-1000 -->
      <g style="fill: #e8eaed" transform="translate(22.621055 781.566562) scale(0.18 -0.18)">
       <defs>
        <path id="Quicksand-Regular-54" d="M 1933 0 
Q 1843 0 1788 57 
Q 1734 115 1734 192 
L 1734 4269 
L 2131 4269 
L 2131 192 
Q 2131 115 2073 57 
Q 2016 0 1933 0 
z
M 410 4115 
Q 333 4115 275 4166 
Q 218 4218 218 4301 
Q 218 4378 275 4429 
Q 333 4480 410 4480 
L 3456 4480 
Q 3533 4480 3590 4429 
Q 3648 4378 3648 4294 
Q 3648 4211 3590 4163 
Q 3533 4115 3456 4115 
L 410 4115 
z
" transform="scale(0.015625)"/>
        <path id="Quicksand-Regular-6f" d="M 3552 1638 
Q 3552 1152 3341 765 
Q 3130 378 2765 157 
Q 2400 -64 1933 -64 
Q 1478 -64 1110 157 
Q 742 378 528 765 
Q 314 1152 314 1638 
Q 314 2131 528 2515 
Q 742 2899 1110 3123 
Q 1478 3347 1933 3347 
Q 2400 3347 2765 3123 
Q 3130 2899 3341 2515 
Q 3552 2131 3552 1638 
z
M 3168 1638 
Q 3168 2029 3008 2333 
Q 2848 2637 2569 2813 
Q 2291 2989 1933 2989 
Q 1587 2989 1305 2813 
Q 1024 2637 861 2333 
Q 698 2029 698 1638 
Q 698 1248 861 947 
Q 1024 646 1305 470 
Q 1587 294 1933 294 
Q 2291 294 2569 470 
Q 2848 646 3008 947 
Q 3168 1248 3168 1638 
z
" transform="scale(0.015625)"/>
        <path id="Quicksand-Regular-70" d="M 2061 3296 
Q 2496 3296 2832 3081 
Q 3168 2867 3366 2492 
Q 3565 2118 3565 1632 
Q 3565 1146 3366 768 
Q 3168 390 2829 172 
Q 2490 -45 2067 -45 
Q 1843 -45 1641 22 
Q 1440 90 1273 205 
Q 1107 320 979 477 
Q 851 634 774 819 
L 890 902 
L 890 -1088 
Q 890 -1165 835 -1222 
Q 781 -1280 698 -1280 
Q 614 -1280 560 -1222 
Q 506 -1165 506 -1088 
L 506 3085 
Q 506 3168 557 3225 
Q 608 3283 698 3283 
Q 781 3283 835 3225 
Q 890 3168 890 3085 
L 890 2394 
L 800 2445 
Q 864 2643 989 2800 
Q 1114 2957 1280 3069 
Q 1446 3181 1644 3238 
Q 1843 3296 2061 3296 
z
M 2029 2938 
Q 1683 2938 1420 2768 
Q 1158 2598 1008 2307 
Q 858 2016 858 1632 
Q 858 1254 1008 953 
Q 1158 653 1420 483 
Q 1683 314 2029 314 
Q 2368 314 2627 483 
Q 2886 653 3040 953 
Q 3194 1254 3194 1632 
Q 3194 2010 3040 2304 
Q 2886 2598 2627 2768 
Q 2368 2938 2029 2938 
z
" transform="scale(0.015625)"/>
        <path id="Quicksand-Regular-2d" d="M 557 1811 
Q 480 1811 425 1868 
Q 371 1926 371 2010 
Q 371 2086 425 2140 
Q 480 2195 557 2195 
L 1939 2195 
Q 2016 2195 2073 2137 
Q 2131 2080 2131 1997 
Q 2131 1920 2073 1865 
Q 2016 1811 1939 1811 
L 557 1811 
z
" transform="scale(0.015625)"/>
        <path id="Quicksand-Regular-31" d="M 1446 0 
Q 1357 0 1299 57 
Q 1242 115 1242 192 
L 1242 4045 
L 1312 3981 
L 461 3411 
Q 410 3373 352 3373 
Q 275 3373 214 3437 
Q 154 3501 154 3578 
Q 154 3680 256 3738 
L 1325 4448 
Q 1363 4474 1404 4480 
Q 1446 4486 1478 4480 
Q 1562 4474 1606 4419 
Q 1651 4365 1651 4288 
L 1651 192 
Q 1651 115 1593 57 
Q 1536 0 1446 0 
z
" transform="scale(0.015625)"/>
        <path id="Quicksand-Regular-30" d="M 1901 -64 
Q 1389 -64 1043 243 
Q 698 550 525 1072 
Q 352 1594 352 2240 
Q 352 2893 525 3414 
Q 698 3936 1043 4240 
Q 1389 4544 1901 4544 
Q 2426 4544 2768 4240 
Q 3110 3936 3283 3414 
Q 3456 2893 3456 2240 
Q 3456 1594 3283 1072 
Q 3110 550 2768 243 
Q 2426 -64 1901 -64 
z
M 1901 333 
Q 2278 333 2531 569 
Q 2784 806 2915 1238 
Q 3046 1670 3046 2240 
Q 3046 2816 2915 3248 
Q 2784 3680 2531 3917 
Q 2278 4154 1901 4154 
Q 1530 4154 1277 3917 
Q 1024 3680 893 3248 
Q 762 2816 762 2240 
Q 762 1670 893 1238 
Q 1024 806 1277 569 
Q 1530 333 1901 333 
z
" transform="scale(0.015625)"/>
       </defs>
       <use xlink:href="#Quicksand-Regular-54"/>
       <use xlink:href="#Quicksand-Regular-6f" transform="translate(60.399994 0)"/>
       <use xlink:href="#Quicksand-Regular-70" transform="translate(120.799988 0)"/>
       <use xlink:href="#Quicksand-Regular-2d" transform="translate(181.399979 0)"/>
       <use xlink:href="#Quicksand-Regular-31" transform="translate(220.399963 0)"/>
       <use xlink:href="#Quicksand-Regular-30" transform="translate(257.399948 0)"/>
       <use xlink:href="#Quicksand-Regular-30" transform="translate(316.899933 0)"/>
       <use xlink:href="#Quicksand-Regular-30" transform="translate(376.399918 0)"/>
      </g>
     </g>
    </g>
    <g id="xtick_2">
     <g id="text_2">
      <!-- Top-100 -->
      <g style="fill: #e8eaed" transform="translate(88.812317 781.566562) scale(0.18 -0.18)">
       <use xlink:href="#Quicksand-Regular-54"/>
       <use xlink:href="#Quicksand-Regular-6f" transform="translate(60.399994 0)"/>
       <use xlink:href="#Quicksand-Regular-70" transform="translate(120.799988 0)"/>
       <use xlink:href="#Quicksand-Regular-2d" transform="translate(181.399979 0)"/>
       <use xlink:href="#Quicksand-Regular-31" transform="translate(220.399963 0)"/>
       <use xlink:href="#Quicksand-Regular-30" transform="translate(257.399948 0)"/>
       <use xlink:href="#Quicksand-Regular-30" transform="translate(316.899933 0)"/>
      </g>
     </g>
    </g>
    <g id="xtick_3">
     <g id="text_3">
      <!-- Top-10 -->
      <g style="fill: #e8eaed" transform="translate(155.003579 781.566562) scale(0.18 -0.18)">
       <use xlink:href="#Quicksand-Regular-54"/>
       <use xlink:href="#Quicksand-Regular-6f" transform="translate(60.399994 0)"/>
       <use xlink:href="#Quicksand-Regular-70" transform="translate(120.799988 0)"/>
       <use xlink:href="#Quicksand-Regular-2d" transform="translate(181.399979 0)"/>
       <use xlink:href="#Quicksand-Regular-31" transform="translate(220.399963 0)"/>
       <use xlink:href="#Quicksand-Regular-30" transform="translate(257.399948 0)"/>
      </g>
     </g>
    </g>
   </g>
   <g id="matplotlib.axis_2">
    <g id="ytick_1">
     <g id="text_4">
      <!-- 70 -->
      <g style="fill: #e8eaed" transform="translate(27.306563 767.308518) scale(0.18 -0.18)">
       <defs>
        <path id="Quicksand-Regular-37" d="M 1139 -19 
Q 1062 -19 998 32 
Q 934 83 934 160 
Q 934 205 954 256 
L 2656 4166 
L 2726 4077 
L 563 4077 
Q 486 4077 432 4131 
Q 378 4186 378 4262 
Q 378 4346 432 4397 
Q 486 4448 563 4448 
L 2912 4448 
Q 3008 4448 3053 4397 
Q 3098 4346 3098 4269 
Q 3098 4218 3078 4173 
L 1318 109 
Q 1299 51 1248 16 
Q 1197 -19 1139 -19 
z
" transform="scale(0.015625)"/>
       </defs>
       <use xlink:href="#Quicksand-Regular-37"/>
       <use xlink:href="#Quicksand-Regular-30" transform="translate(51.299988 0)"/>
      </g>
     </g>
    </g>
    <g id="ytick_2">
     <g id="text_5">
      <!-- 100 -->
      <g style="fill: #e8eaed" transform="translate(19.17 705.837856) scale(0.18 -0.18)">
       <use xlink:href="#Quicksand-Regular-31"/>
       <use xlink:href="#Quicksand-Regular-30" transform="translate(36.999985 0)"/>
       <use xlink:href="#Quicksand-Regular-30" transform="translate(96.499969 0)"/>
      </g>
     </g>
    </g>
    <g id="ytick_3">
     <g id="text_6">
      <!-- 200 -->
      <g style="fill: #e8eaed" transform="translate(15.856875 500.935648) scale(0.18 -0.18)">
       <defs>
        <path id="Quicksand-Regular-32" d="M 3034 371 
Q 3110 371 3164 316 
Q 3219 262 3219 186 
Q 3219 102 3164 51 
Q 3110 0 3034 0 
L 634 0 
Q 550 0 489 48 
Q 429 96 429 192 
Q 429 262 480 326 
L 1958 1958 
Q 2310 2342 2486 2665 
Q 2662 2989 2662 3245 
Q 2662 3667 2406 3923 
Q 2150 4179 1715 4179 
Q 1517 4179 1321 4096 
Q 1126 4013 976 3878 
Q 826 3744 742 3571 
Q 704 3507 662 3481 
Q 621 3456 570 3456 
Q 493 3456 435 3504 
Q 378 3552 378 3622 
Q 378 3667 400 3712 
Q 422 3757 467 3814 
Q 582 4013 787 4179 
Q 992 4346 1245 4445 
Q 1498 4544 1741 4544 
Q 2150 4544 2448 4387 
Q 2746 4230 2909 3945 
Q 3072 3661 3072 3270 
Q 3072 2938 2864 2544 
Q 2656 2150 2246 1696 
L 998 294 
L 934 371 
L 3034 371 
z
" transform="scale(0.015625)"/>
       </defs>
       <use xlink:href="#Quicksand-Regular-32"/>
       <use xlink:href="#Quicksand-Regular-30" transform="translate(55.399994 0)"/>
       <use xlink:href="#Quicksand-Regular-30" transform="translate(114.899979 0)"/>
      </g>
     </g>
    </g>
    <g id="ytick_4">
     <g id="text_7">
      <!-- 300 -->
      <g style="fill: #e8eaed" transform="translate(16.396875 296.033439) scale(0.18 -0.18)">
       <defs>
        <path id="Quicksand-Regular-33" d="M 570 659 
Q 602 659 637 646 
Q 672 634 723 589 
Q 858 448 1043 374 
Q 1229 301 1466 301 
Q 1779 301 2038 441 
Q 2298 582 2451 835 
Q 2605 1088 2605 1414 
Q 2605 1786 2441 2013 
Q 2278 2240 2025 2352 
Q 1773 2464 1510 2464 
Q 1440 2464 1373 2454 
Q 1306 2445 1248 2432 
Q 1190 2419 1158 2419 
Q 1075 2419 1030 2473 
Q 986 2528 986 2611 
Q 986 2656 1005 2691 
Q 1024 2726 1056 2771 
L 2355 4186 
L 2432 4083 
L 493 4083 
Q 416 4083 361 4137 
Q 307 4192 307 4269 
Q 307 4346 361 4397 
Q 416 4448 493 4448 
L 2643 4448 
Q 2752 4448 2797 4381 
Q 2842 4314 2842 4250 
Q 2842 4211 2822 4176 
Q 2803 4141 2771 4102 
L 1472 2688 
L 1331 2771 
Q 1350 2790 1462 2812 
Q 1574 2835 1638 2835 
Q 1990 2835 2300 2668 
Q 2611 2502 2806 2192 
Q 3002 1882 3002 1427 
Q 3002 979 2790 643 
Q 2579 307 2220 121 
Q 1862 -64 1427 -64 
Q 1165 -64 909 25 
Q 653 115 461 294 
Q 416 333 397 371 
Q 378 410 378 448 
Q 378 525 432 592 
Q 486 659 570 659 
z
" transform="scale(0.015625)"/>
       </defs>
       <use xlink:href="#Quicksand-Regular-33"/>
       <use xlink:href="#Quicksand-Regular-30" transform="translate(52.399994 0)"/>
       <use xlink:href="#Quicksand-Regular-30" transform="translate(111.899979 0)"/>
      </g>
     </g>
    </g>
    <g id="ytick_5">
     <g id="text_8">
      <!-- 380 -->
      <g style="fill: #e8eaed" transform="translate(17.386875 132.111673) scale(0.18 -0.18)">
       <defs>
        <path id="Quicksand-Regular-38" d="M 2330 2253 
L 2310 2310 
Q 2528 2227 2707 2064 
Q 2886 1901 2995 1680 
Q 3104 1459 3104 1197 
Q 3104 851 2921 569 
Q 2739 288 2425 121 
Q 2112 -45 1728 -45 
Q 1338 -45 1027 121 
Q 717 288 534 569 
Q 352 851 352 1197 
Q 352 1478 464 1699 
Q 576 1920 758 2073 
Q 941 2227 1139 2310 
L 1120 2246 
Q 947 2330 796 2474 
Q 646 2618 550 2819 
Q 454 3021 454 3264 
Q 454 3610 624 3885 
Q 794 4160 1085 4320 
Q 1376 4480 1728 4480 
Q 2080 4480 2365 4320 
Q 2650 4160 2819 3885 
Q 2989 3610 2989 3264 
Q 2989 3014 2893 2816 
Q 2797 2618 2643 2474 
Q 2490 2330 2330 2253 
z
M 851 3264 
Q 851 3008 972 2816 
Q 1094 2624 1292 2515 
Q 1491 2406 1728 2406 
Q 1958 2406 2156 2515 
Q 2355 2624 2473 2816 
Q 2592 3008 2592 3264 
Q 2592 3642 2349 3878 
Q 2106 4115 1728 4115 
Q 1338 4115 1094 3878 
Q 851 3642 851 3264 
z
M 1728 320 
Q 2163 320 2435 569 
Q 2707 819 2707 1197 
Q 2707 1453 2572 1657 
Q 2438 1862 2214 1977 
Q 1990 2093 1728 2093 
Q 1466 2093 1242 1977 
Q 1018 1862 883 1657 
Q 749 1453 749 1197 
Q 749 819 1017 569 
Q 1286 320 1728 320 
z
" transform="scale(0.015625)"/>
       </defs>
       <use xlink:href="#Quicksand-Regular-33"/>
       <use xlink:href="#Quicksand-Regular-38" transform="translate(52.399994 0)"/>
       <use xlink:href="#Quicksand-Regular-30" transform="translate(106.399979 0)"/>
      </g>
     </g>
    </g>
   </g>
   <g id="patch_3">
    <path d="M 57.289898 740.158298 
L 66.415337 740.158298 
L 66.415337 678.687635 
L 57.289898 678.687635 
z
" clip-path="url(#pfbcf85f2d5)" style="fill: #9aa0a6; stroke: #9aa0a6; stroke-width: 2; stroke-linejoin: miter"/>
   </g>
   <g id="LineCollection_1">
    <path d="M 61.852618 754.501452 
L 61.852618 586.481641 
" clip-path="url(#pfbcf85f2d5)" style="fill: none; stroke: #9aa0a6; stroke-width: 2"/>
   </g>
   <g id="LineCollection_2">
    <path d="M 57.74617 754.501452 
L 65.959065 754.501452 
" clip-path="url(#pfbcf85f2d5)" style="fill: none; stroke: #9aa0a6; stroke-width: 2"/>
    <path d="M 57.74617 586.481641 
L 65.959065 586.481641 
" clip-path="url(#pfbcf85f2d5)" style="fill: none; stroke: #9aa0a6; stroke-width: 2"/>
   </g>
   <g id="patch_4">
    <path d="M 118.12616 605.947351 
L 127.251599 605.947351 
L 127.251599 506.56978 
L 118.12616 506.56978 
z
" clip-path="url(#pfbcf85f2d5)" style="fill: #9aa0a6; stroke: #9aa0a6; stroke-width: 2; stroke-linejoin: miter"/>
   </g>
   <g id="LineCollection_3">
    <path d="M 122.688879 625.413061 
L 122.688879 369.285301 
" clip-path="url(#pfbcf85f2d5)" style="fill: none; stroke: #9aa0a6; stroke-width: 2"/>
   </g>
   <g id="LineCollection_4">
    <path d="M 118.582432 625.413061 
L 126.795327 625.413061 
" clip-path="url(#pfbcf85f2d5)" style="fill: none; stroke: #9aa0a6; stroke-width: 2"/>
    <path d="M 118.582432 369.285301 
L 126.795327 369.285301 
" clip-path="url(#pfbcf85f2d5)" style="fill: none; stroke: #9aa0a6; stroke-width: 2"/>
   </g>
   <g id="patch_5">
    <path d="M 178.962422 377.481389 
L 188.087861 377.481389 
L 188.087861 336.500947 
L 178.962422 336.500947 
z
" clip-path="url(#pfbcf85f2d5)" style="fill: #9aa0a6; stroke: #9aa0a6; stroke-width: 2; stroke-linejoin: miter"/>
   </g>
   <g id="LineCollection_5">
    <path d="M 183.525141 438.952051 
L 183.525141 328.304859 
" clip-path="url(#pfbcf85f2d5)" style="fill: none; stroke: #9aa0a6; stroke-width: 2"/>
   </g>
   <g id="LineCollection_6">
    <path d="M 179.418694 438.952051 
L 187.631589 438.952051 
" clip-path="url(#pfbcf85f2d5)" style="fill: none; stroke: #9aa0a6; stroke-width: 2"/>
    <path d="M 179.418694 328.304859 
L 187.631589 328.304859 
" clip-path="url(#pfbcf85f2d5)" style="fill: none; stroke: #9aa0a6; stroke-width: 2"/>
   </g>
   <g id="LineCollection_7">
    <path d="M 58.202442 719.668077 
L 65.502793 719.668077 
" clip-path="url(#pfbcf85f2d5)" style="fill: none; stroke: #ffffff; stroke-width: 3"/>
   </g>
   <g id="LineCollection_8">
    <path d="M 119.038704 578.285553 
L 126.339055 578.285553 
" clip-path="url(#pfbcf85f2d5)" style="fill: none; stroke: #ffffff; stroke-width: 3"/>
   </g>
   <g id="LineCollection_9">
    <path d="M 179.874966 356.991168 
L 187.175317 356.991168 
" clip-path="url(#pfbcf85f2d5)" style="fill: none; stroke: #ffffff; stroke-width: 3"/>
   </g>
  </g>
  <g id="text_9">
   <!-- outlier -->
   <g style="fill: #9aa0a6" transform="translate(7.2 59.142187) scale(0.7 -0.7)">
    <defs>
     <path id="Montserrat-Regular-6f" d="M 2003 -32 
Q 1517 -32 1129 189 
Q 742 410 518 797 
Q 294 1184 294 1683 
Q 294 2189 518 2573 
Q 742 2957 1126 3174 
Q 1510 3392 2003 3392 
Q 2502 3392 2889 3174 
Q 3277 2957 3497 2573 
Q 3718 2189 3718 1683 
Q 3718 1184 3497 797 
Q 3277 410 2886 189 
Q 2496 -32 2003 -32 
z
M 2003 371 
Q 2368 371 2649 534 
Q 2931 698 3094 995 
Q 3258 1293 3258 1683 
Q 3258 2080 3094 2374 
Q 2931 2669 2649 2832 
Q 2368 2995 2010 2995 
Q 1651 2995 1369 2832 
Q 1088 2669 921 2374 
Q 755 2080 755 1683 
Q 755 1293 921 995 
Q 1088 698 1369 534 
Q 1651 371 2003 371 
z
" transform="scale(0.015625)"/>
     <path id="Montserrat-Regular-75" d="M 2022 -32 
Q 1594 -32 1274 128 
Q 954 288 778 608 
Q 602 928 602 1408 
L 602 3360 
L 1056 3360 
L 1056 1459 
Q 1056 922 1321 650 
Q 1587 378 2067 378 
Q 2419 378 2678 522 
Q 2938 666 3075 941 
Q 3213 1216 3213 1600 
L 3213 3360 
L 3667 3360 
L 3667 0 
L 3232 0 
L 3232 922 
L 3302 755 
Q 3142 384 2806 176 
Q 2470 -32 2022 -32 
z
" transform="scale(0.015625)"/>
     <path id="Montserrat-Regular-74" d="M 1696 -32 
Q 1222 -32 966 224 
Q 710 480 710 947 
L 710 4102 
L 1165 4102 
L 1165 973 
Q 1165 678 1315 518 
Q 1466 358 1747 358 
Q 2048 358 2246 531 
L 2406 205 
Q 2272 83 2083 25 
Q 1894 -32 1696 -32 
z
M 109 2982 
L 109 3360 
L 2189 3360 
L 2189 2982 
L 109 2982 
z
" transform="scale(0.015625)"/>
     <path id="Montserrat-Regular-6c" d="M 634 0 
L 634 4749 
L 1088 4749 
L 1088 0 
L 634 0 
z
" transform="scale(0.015625)"/>
     <path id="Montserrat-Regular-69" d="M 634 0 
L 634 3360 
L 1088 3360 
L 1088 0 
L 634 0 
z
M 864 4102 
Q 723 4102 627 4198 
Q 531 4294 531 4429 
Q 531 4563 627 4656 
Q 723 4749 864 4749 
Q 1005 4749 1101 4659 
Q 1197 4570 1197 4435 
Q 1197 4294 1104 4198 
Q 1011 4102 864 4102 
z
" transform="scale(0.015625)"/>
     <path id="Montserrat-Regular-65" d="M 2061 -32 
Q 1536 -32 1139 189 
Q 742 410 518 797 
Q 294 1184 294 1683 
Q 294 2182 508 2566 
Q 723 2950 1097 3171 
Q 1472 3392 1939 3392 
Q 2413 3392 2781 3177 
Q 3149 2963 3360 2576 
Q 3571 2189 3571 1683 
Q 3571 1651 3568 1616 
Q 3565 1581 3565 1542 
L 640 1542 
L 640 1882 
L 3322 1882 
L 3142 1747 
Q 3142 2112 2985 2397 
Q 2829 2682 2560 2842 
Q 2291 3002 1939 3002 
Q 1594 3002 1318 2842 
Q 1043 2682 889 2394 
Q 736 2106 736 1734 
L 736 1664 
Q 736 1280 905 989 
Q 1075 698 1379 534 
Q 1683 371 2074 371 
Q 2381 371 2646 480 
Q 2912 589 3104 813 
L 3360 518 
Q 3136 250 2800 109 
Q 2464 -32 2061 -32 
z
" transform="scale(0.015625)"/>
     <path id="Montserrat-Regular-72" d="M 634 0 
L 634 3360 
L 1069 3360 
L 1069 2445 
L 1024 2605 
Q 1165 2989 1497 3190 
Q 1830 3392 2323 3392 
L 2323 2950 
Q 2298 2950 2272 2953 
Q 2246 2957 2221 2957 
Q 1690 2957 1389 2633 
Q 1088 2310 1088 1715 
L 1088 0 
L 634 0 
z
" transform="scale(0.015625)"/>
    </defs>
    <use xlink:href="#Montserrat-Regular-6f"/>
    <use xlink:href="#Montserrat-Regular-75" transform="translate(62.699997 0)"/>
    <use xlink:href="#Montserrat-Regular-74" transform="translate(129.899994 0)"/>
    <use xlink:href="#Montserrat-Regular-6c" transform="translate(170.499985 0)"/>
    <use xlink:href="#Montserrat-Regular-69" transform="translate(197.399979 0)"/>
    <use xlink:href="#Montserrat-Regular-65" transform="translate(224.299973 0)"/>
    <use xlink:href="#Montserrat-Regular-72" transform="translate(284.699966 0)"/>
   </g>
  </g>
  <g id="text_10">
   <!-- Even -->
   <g style="fill: #e8eaed; opacity: 0.85" transform="translate(7.2 91.386562) scale(0.22 -0.22)">
    <defs>
     <path id="RobotoCondensed-Light-45" d="M 2925 334 
L 2925 0 
L 800 0 
L 800 334 
L 2925 334 
z
M 900 4550 
L 900 0 
L 541 0 
L 541 4550 
L 900 4550 
z
M 2659 2516 
L 2659 2178 
L 800 2178 
L 800 2516 
L 2659 2516 
z
M 2909 4550 
L 2909 4216 
L 800 4216 
L 800 4550 
L 2909 4550 
z
" transform="scale(0.015625)"/>
     <path id="RobotoCondensed-Light-76" d="M 1309 366 
L 2194 3381 
L 2550 3381 
L 1500 0 
L 1247 0 
L 1309 366 
z
M 522 3381 
L 1419 359 
L 1469 0 
L 1219 0 
L 163 3381 
L 522 3381 
z
" transform="scale(0.015625)"/>
     <path id="RobotoCondensed-Light-65" d="M 1581 -66 
Q 1300 -66 1064 26 
Q 828 119 658 308 
Q 488 497 394 786 
Q 300 1075 300 1469 
L 300 1856 
Q 300 2278 400 2579 
Q 500 2881 670 3073 
Q 841 3266 1059 3355 
Q 1278 3444 1522 3444 
Q 1800 3444 2011 3353 
Q 2222 3263 2365 3078 
Q 2509 2894 2581 2614 
Q 2653 2334 2653 1953 
L 2653 1663 
L 509 1663 
L 509 1991 
L 2306 1991 
L 2306 2075 
Q 2300 2406 2214 2639 
Q 2128 2872 1956 2995 
Q 1784 3119 1522 3119 
Q 1331 3119 1168 3048 
Q 1006 2978 889 2828 
Q 772 2678 711 2437 
Q 650 2197 650 1856 
L 650 1469 
Q 650 1159 717 934 
Q 784 709 909 559 
Q 1034 409 1209 336 
Q 1384 263 1597 263 
Q 1856 263 2054 352 
Q 2253 441 2406 622 
L 2588 391 
Q 2497 269 2361 164 
Q 2225 59 2033 -3 
Q 1841 -66 1581 -66 
z
" transform="scale(0.015625)"/>
     <path id="RobotoCondensed-Light-6e" d="M 813 2659 
L 813 0 
L 466 0 
L 466 3381 
L 800 3381 
L 813 2659 
z
M 734 1900 
L 581 1991 
Q 594 2291 680 2553 
Q 766 2816 916 3017 
Q 1066 3219 1269 3331 
Q 1472 3444 1719 3444 
Q 1931 3444 2098 3375 
Q 2266 3306 2383 3159 
Q 2500 3013 2562 2777 
Q 2625 2541 2625 2206 
L 2625 0 
L 2278 0 
L 2278 2206 
Q 2278 2553 2200 2750 
Q 2122 2947 1976 3030 
Q 1831 3113 1628 3113 
Q 1413 3113 1248 2997 
Q 1084 2881 970 2697 
Q 856 2513 797 2302 
Q 738 2091 734 1900 
z
" transform="scale(0.015625)"/>
    </defs>
    <use xlink:href="#RobotoCondensed-Light-45"/>
    <use xlink:href="#RobotoCondensed-Light-76" transform="translate(49.755859 0)"/>
    <use xlink:href="#RobotoCondensed-Light-65" transform="translate(92.1875 0)"/>
    <use xlink:href="#RobotoCondensed-Light-6e" transform="translate(137.988281 0)"/>
   </g>
  </g>
 </g>
 <defs>
  <clipPath id="pfbcf85f2d5">
   <rect x="50.75" y="115.206562" width="143.877759" height="649.54"/>
  </clipPath>
 </defs>
</svg>
